<?xml version="1.0" encoding="UTF-8"?>
<svg id="Layer_2" data-name="Layer 2" xmlns="http://www.w3.org/2000/svg" viewBox="0 0 501.47 494.72">
  <defs>
    <style>
      .cls-1 {
        stroke-width: 5px;
      }

      .cls-1, .cls-2, .cls-3 {
        fill: none;
      }

      .cls-1, .cls-3 {
        stroke: #231f20;
        stroke-miterlimit: 10;
      }

      .cls-2, .cls-4 {
        stroke-width: 0px;
      }

      .cls-4 {
        fill: #231f20;
      }

      .cls-3 {
        stroke-width: 6px;
      }
    </style>
  </defs>
  <g id="Layer_1-2" data-name="Layer 1">
    <g>
      <text/>
      <rect class="cls-2" x="63.09" y="288.94" width="438.38" height="72.18"/>
      <g>
        <g>
          <path class="cls-4" d="m52.44,171.35h43.77v12.34h-27.95v16.72h21.73v12.34h-21.73v17.72h27.95v12.87h-43.77v-71.98Z"/>
          <path class="cls-4" d="m97.68,171.35h17.65l8.56,18.66,9.05-18.66h15.16l-16.98,32.56,19.2,39.42h-17.36l-10.49-23.46-11.78,23.46h-15.16l19.77-36.89-17.61-35.1Z"/>
          <path class="cls-4" d="m168.19,171.35h15.93l20.57,71.98h-16.18l-3.59-14.87h-20.28l-3.53,14.87h-14.54l21.62-71.98Zm13.75,44.77l-7.27-29.49-6.98,29.49h14.25Z"/>
          <path class="cls-4" d="m210.69,171.35h23.2l10.18,44.46,11.44-44.46h22.52v71.98h-14.82v-60.28l-14.71,60.28h-11.5l-13.45-60.28v60.28h-12.87v-71.98Z"/>
          <path class="cls-4" d="m291.64,171.35h20.72c6.29,0,11.17.53,14.63,1.58,3.46,1.05,6.37,3.44,8.73,7.15,2.35,3.71,3.53,8.31,3.53,13.79s-.95,9.63-2.85,13.08c-1.9,3.45-4.53,5.93-7.88,7.46-3.36,1.53-8.52,2.29-15.48,2.29h-5.59v26.63h-15.82v-71.98Zm15.82,11.65v21.36h4.9c4.32,0,7.11-1,8.36-3.01,1.25-2.01,1.87-4.62,1.87-7.82,0-2.71-.48-4.91-1.45-6.58-.97-1.67-2.09-2.75-3.38-3.23-1.28-.48-3.08-.71-5.41-.71h-4.9Z"/>
          <path class="cls-4" d="m346.85,171.35h15.82v58.48h23.2v13.5h-39.02v-71.98Z"/>
          <path class="cls-4" d="m392.84,171.35h43.77v12.34h-27.95v16.72h21.73v12.34h-21.73v17.72h27.95v12.87h-43.77v-71.98Z"/>
        </g>
        <g>
          <path class="cls-4" d="m53.9,262.01l-4.84,1.86c-.69-2.2-1.95-3.3-3.79-3.3-.86,0-1.54.24-2.04.73-.5.49-.75,1.06-.75,1.71,0,.75.3,1.36.89,1.81.59.45,1.83,1.04,3.72,1.77,1.72.64,3.07,1.27,4.05,1.89.98.62,1.78,1.47,2.38,2.55s.91,2.32.91,3.74c0,2.49-.86,4.53-2.57,6.12-1.71,1.59-4.01,2.39-6.88,2.39-4.83,0-7.92-2.44-9.26-7.32l5.12-1.46c.62,2.68,2.05,4.02,4.28,4.02,1.02,0,1.84-.26,2.47-.79.63-.53.95-1.22.95-2.08,0-.65-.22-1.23-.66-1.75-.44-.51-1.46-1.06-3.05-1.63-2.04-.73-3.57-1.39-4.57-1.98-1-.59-1.83-1.44-2.48-2.54-.65-1.1-.98-2.35-.98-3.76,0-2.4.77-4.36,2.31-5.89s3.58-2.29,6.12-2.29c4.64,0,7.53,2.07,8.67,6.21Z"/>
          <path class="cls-4" d="m63.2,256.21h5.9l7.62,26.66h-5.99l-1.33-5.51h-7.51l-1.31,5.51h-5.38l8.01-26.66Zm5.09,16.58l-2.69-10.92-2.58,10.92h5.28Z"/>
          <path class="cls-4" d="m75.43,256.21h6.15l4.1,20.33,4.24-20.33h5.03l-6.54,26.8-6.56-.14-6.41-26.66Z"/>
          <path class="cls-4" d="m96.89,256.21h16.21v4.57h-10.35v6.19h8.05v4.57h-8.05v6.56h10.35v4.77h-16.21v-26.66Z"/>
          <path class="cls-4" d="m115.97,256.21h6.31c2.73,0,4.96.37,6.67,1.1,1.71.74,3.08,2.09,4.11,4.07,1.03,1.98,1.54,4.66,1.54,8.03,0,2.4-.31,4.52-.94,6.38s-1.45,3.32-2.46,4.38-2.16,1.78-3.44,2.15c-1.28.36-2.87.55-4.79.55h-7.01v-26.66Zm5.86,4.57v17.52h1c1.36,0,2.41-.26,3.15-.78.74-.52,1.34-1.43,1.78-2.73.44-1.3.67-3.17.67-5.62,0-2.27-.25-4.02-.73-5.24-.49-1.23-1.1-2.06-1.84-2.49-.74-.44-1.75-.66-3.03-.66h-1Z"/>
          <path class="cls-4" d="m150.62,256.21h5.9l7.62,26.66h-5.99l-1.33-5.51h-7.51l-1.31,5.51h-5.38l8.01-26.66Zm5.09,16.58l-2.69-10.92-2.58,10.92h5.28Z"/>
          <path class="cls-4" d="m182.67,262.01l-4.84,1.86c-.69-2.2-1.95-3.3-3.79-3.3-.86,0-1.54.24-2.04.73-.5.49-.75,1.06-.75,1.71,0,.75.3,1.36.89,1.81.59.45,1.83,1.04,3.72,1.77,1.72.64,3.07,1.27,4.05,1.89.98.62,1.78,1.47,2.38,2.55s.91,2.32.91,3.74c0,2.49-.86,4.53-2.57,6.12-1.71,1.59-4.01,2.39-6.88,2.39-4.83,0-7.92-2.44-9.26-7.32l5.12-1.46c.62,2.68,2.05,4.02,4.28,4.02,1.02,0,1.84-.26,2.47-.79.63-.53.95-1.22.95-2.08,0-.65-.22-1.23-.66-1.75-.44-.51-1.46-1.06-3.05-1.63-2.04-.73-3.57-1.39-4.57-1.98-1-.59-1.83-1.44-2.48-2.54-.65-1.1-.98-2.35-.98-3.76,0-2.4.77-4.36,2.31-5.89s3.58-2.29,6.12-2.29c4.64,0,7.53,2.07,8.67,6.21Z"/>
          <path class="cls-4" d="m207.24,273.16l5.41.33c-.2,2.89-1.11,5.24-2.75,7.06s-3.81,2.72-6.5,2.72c-3.28,0-5.78-1.22-7.5-3.65s-2.58-5.79-2.58-10.06.85-7.68,2.56-10.12c1.71-2.43,4.24-3.65,7.6-3.65,5.56,0,8.59,3.44,9.08,10.31l-5.35.39c-.14-3.96-1.38-5.94-3.71-5.94-1.22,0-2.2.64-2.92,1.91s-1.08,3.75-1.08,7.42c0,3.28.33,5.54,1,6.77s1.66,1.85,2.99,1.85c2.14,0,3.39-1.78,3.77-5.35Z"/>
          <path class="cls-4" d="m234.49,269.53c0,9.17-3.22,13.75-9.67,13.75-3.2,0-5.62-1.17-7.25-3.51-1.63-2.34-2.44-5.75-2.44-10.24,0-9.15,3.22-13.73,9.67-13.73,3.15,0,5.55,1.15,7.21,3.44,1.65,2.29,2.48,5.72,2.48,10.29Zm-6.17,0c0-3.59-.28-5.99-.84-7.18-.56-1.19-1.45-1.79-2.68-1.79s-2.1.6-2.66,1.8c-.56,1.2-.84,3.59-.84,7.17s.28,5.89.83,7.13c.55,1.24,1.44,1.86,2.67,1.86s2.1-.59,2.67-1.78.85-3.59.85-7.21Z"/>
          <path class="cls-4" d="m235.51,256.21h6.15l4.1,20.33,4.24-20.33h5.03l-6.54,26.8-6.56-.14-6.41-26.66Z"/>
          <path class="cls-4" d="m256.97,256.21h16.21v4.57h-10.35v6.19h8.05v4.57h-8.05v6.56h10.35v4.77h-16.21v-26.66Z"/>
          <path class="cls-4" d="m276.05,256.21h8.38c1.63,0,2.88.08,3.74.22.87.15,1.74.55,2.63,1.21.89.66,1.58,1.56,2.08,2.7.5,1.14.75,2.42.75,3.84,0,3.33-1.25,5.68-3.75,7.03l4.9,11.66h-6.38l-3.57-10.55h-2.93v10.55h-5.86v-26.66Zm5.86,4.32v7.48h2.58c2.29,0,3.44-1.28,3.44-3.85,0-.89-.17-1.61-.51-2.18-.34-.57-.73-.95-1.18-1.15s-1.11-.3-1.98-.3h-2.34Z"/>
          <path class="cls-4" d="m297.85,256.21h5.86v26.66h-5.86v-26.66Z"/>
          <path class="cls-4" d="m308.75,256.21h8.59l3.77,16.46,4.24-16.46h8.34v26.66h-5.49v-22.32l-5.45,22.32h-4.26l-4.98-22.32v22.32h-4.77v-26.66Z"/>
          <path class="cls-4" d="m343.44,256.21h5.9l7.62,26.66h-5.99l-1.33-5.51h-7.51l-1.31,5.51h-5.38l8.01-26.66Zm5.09,16.58l-2.69-10.92-2.58,10.92h5.28Z"/>
          <path class="cls-4" d="m368.14,268.65h9.26v14.22h-2.48l-.76-3.05c-1.43,2.3-3.58,3.46-6.45,3.46-3.03,0-5.44-1.19-7.22-3.58s-2.67-5.6-2.67-9.64c0-4.39.88-7.86,2.63-10.42s4.34-3.84,7.76-3.84c5.46,0,8.52,3.05,9.18,9.14l-5.27.86c-.36-3.49-1.63-5.23-3.79-5.23-1.32,0-2.37.64-3.15,1.93s-1.18,3.73-1.18,7.32c0,3.19.38,5.44,1.15,6.74s1.89,1.95,3.38,1.95c2.38,0,3.58-1.76,3.59-5.29h-3.98v-4.57Z"/>
          <path class="cls-4" d="m381.97,256.21h16.21v4.57h-10.35v6.19h8.05v4.57h-8.05v6.56h10.35v4.77h-16.21v-26.66Z"/>
          <path class="cls-4" d="m400.92,276.97h5.45v5.9h-5.45v-5.9Z"/>
          <path class="cls-4" d="m423.79,267.89l-3.93,1.17c-.52-1.78-1.48-2.68-2.89-2.68-1.15,0-1.72.57-1.72,1.72,0,.65.21,1.15.64,1.48s1.32.74,2.66,1.21c1.51.53,2.62,1,3.32,1.41s1.3,1.01,1.78,1.83.72,1.75.72,2.8c0,1.82-.66,3.35-1.97,4.59s-3.15,1.86-5.51,1.86c-4.44,0-6.9-1.96-7.38-5.88l4.38-.7c.36,1.97,1.4,2.95,3.11,2.95,1.46,0,2.19-.61,2.19-1.84,0-.65-.21-1.15-.64-1.48s-1.26-.7-2.5-1.09c-2.27-.73-3.82-1.61-4.67-2.64s-1.27-2.22-1.27-3.57c0-1.9.67-3.42,2-4.57s3-1.72,5.01-1.72c3.5,0,5.73,1.72,6.68,5.16Z"/>
          <path class="cls-4" d="m424.67,263.14h5.3l2.71,11.63,2.74-11.63h4.58l-5.41,19.73h-4.36l-5.57-19.73Z"/>
          <path class="cls-4" d="m458.22,259.9v3.59c-.42-.1-.81-.16-1.19-.16-1.15,0-1.84.59-2.09,1.78.98,1.03,1.46,2.34,1.46,3.95,0,1.78-.66,3.21-1.99,4.29s-3.05,1.61-5.16,1.61c-.81,0-1.66-.11-2.56-.33-.86.47-1.29,1.01-1.29,1.62,0,.5.24.82.72.98s1.8.29,3.95.41c1.98.12,3.46.31,4.44.59s1.8.83,2.46,1.68.99,1.96.99,3.34c0,4.4-3.21,6.6-9.63,6.6-5.39,0-8.09-1.57-8.09-4.71,0-1.73,1.07-2.96,3.22-3.67-1.72-.81-2.58-1.95-2.58-3.42,0-1.69,1.13-3.14,3.4-4.34-1.95-.96-2.93-2.6-2.93-4.92,0-1.97.67-3.46,2.02-4.49s3.15-1.54,5.4-1.54c1.5,0,2.9.29,4.22.86.14-1.41.5-2.41,1.05-3.01s1.44-.9,2.64-.9c.57,0,1.08.07,1.52.2Zm-11.7,22.11c-1.16.53-1.74,1.33-1.74,2.38,0,1.33,1.51,1.99,4.53,1.99,2.59,0,3.89-.69,3.89-2.07,0-.51-.14-.92-.42-1.24s-.64-.52-1.07-.61-1.35-.16-2.74-.22c-.82-.05-1.63-.13-2.44-.23Zm4.2-13.12c0-2.12-.58-3.18-1.74-3.18-.7,0-1.2.26-1.49.77s-.44,1.36-.44,2.55c0,1.99.63,2.99,1.89,2.99.64,0,1.09-.23,1.37-.7s.41-1.28.41-2.42Z"/>
        </g>
        <rect class="cls-1" x="100.24" y="299.87" width="132.8" height="132.8" rx="26.66" ry="26.66"/>
        <g>
          <circle class="cls-3" cx="247.36" cy="247.36" r="244.36"/>
          <rect class="cls-1" x="261.24" y="299.87" width="132.8" height="132.8" rx="26.66" ry="26.66"/>
        </g>
        <rect class="cls-1" x="180.04" y="329.08" width="132.8" height="132.8" rx="26.66" ry="26.66"/>
        <rect class="cls-1" x="116.3" y="45.26" width="60.29" height="60.29" rx="21.8" ry="21.8" transform="translate(96.21 -81.46) rotate(45)"/>
        <rect class="cls-1" x="183.5" y="78.86" width="60.29" height="60.29" rx="21.8" ry="21.8" transform="translate(139.66 -119.14) rotate(45)"/>
        <rect class="cls-1" x="226.86" y="21.88" width="60.29" height="60.29" rx="21.8" ry="21.8" transform="translate(112.06 -166.5) rotate(45)"/>
        <rect class="cls-1" x="281.82" y="72.74" width="48.12" height="48.12" rx="15.29" ry="15.29" transform="translate(158.04 -187.94) rotate(45)"/>
        <rect class="cls-1" x="325.95" y="116.87" width="33.65" height="33.65" rx="10.65" ry="10.65" transform="translate(194.93 -203.22) rotate(45)"/>
        <rect class="cls-1" x="91.55" y="94.29" width="17.39" height="17.39" rx="5.52" ry="5.52" transform="translate(102.18 -40.72) rotate(45)"/>
        <rect class="cls-1" x="367.48" y="104.3" width="17.39" height="17.39" rx="5.52" ry="5.52" transform="translate(190.08 -232.9) rotate(45)"/>
        <rect class="cls-1" x="389.5" y="88.91" width="13.51" height="13.51" rx="3.88" ry="3.88" transform="translate(183.7 -252.18) rotate(45)"/>
      </g>
    </g>
  </g>
</svg>